<?xml version="1.0" encoding="UTF-8" standalone="no"?>
<svg
   xmlns:dc="http://purl.org/dc/elements/1.1/"
   xmlns:cc="http://creativecommons.org/ns#"
   xmlns:rdf="http://www.w3.org/1999/02/22-rdf-syntax-ns#"
   xmlns:svg="http://www.w3.org/2000/svg"
   xmlns="http://www.w3.org/2000/svg"
   xmlns:sodipodi="http://sodipodi.sourceforge.net/DTD/sodipodi-0.dtd"
   xmlns:inkscape="http://www.inkscape.org/namespaces/inkscape"
   width="200mm"
   height="200mm"
   viewBox="0 0 200 200"
   version="1.1"
   id="svg5062"
   inkscape:version="1.0.2 (e86c8708, 2021-01-15)"
   sodipodi:docname="cme.svg">
  <defs
     id="defs5056" />
  <sodipodi:namedview
     id="base"
     pagecolor="#ffffff"
     bordercolor="#666666"
     borderopacity="1.0"
     inkscape:pageopacity="0.0"
     inkscape:pageshadow="2"
     inkscape:zoom="0.62"
     inkscape:cx="343.71603"
     inkscape:cy="187.77162"
     inkscape:document-units="mm"
     inkscape:current-layer="layer1"
     inkscape:document-rotation="0"
     showgrid="false"
     inkscape:window-width="1252"
     inkscape:window-height="943"
     inkscape:window-x="1151"
     inkscape:window-y="113"
     inkscape:window-maximized="0" />
  <metadata
     id="metadata5059">
    <rdf:RDF>
      <cc:Work
         rdf:about="">
        <dc:format>image/svg+xml</dc:format>
        <dc:type
           rdf:resource="http://purl.org/dc/dcmitype/StillImage" />
        <dc:title />
      </cc:Work>
    </rdf:RDF>
  </metadata>
  <g
     inkscape:label="Layer 1"
     inkscape:groupmode="layer"
     id="layer1">
    <path
       style="fill:none;stroke:#ffffff;stroke-width:3;stroke-linecap:round;stroke-linejoin:round;stroke-miterlimit:4;stroke-dasharray:none;stroke-opacity:1"
       d="m 143.5526,79.413738 14.75377,8.776005 -1.55449,-14.780493 28.41127,-5.039491 -25.29498,-13.002791 17.53562,-21.200835 -24.34488,7.428212 -0.36637,-22.435722 -17.25406,22.021383 -13.45054,-9.866706 3.46315,25.073806"
       id="path5742"
       sodipodi:nodetypes="ccccccccccc" />
    <path
       style="fill:none;stroke:#ffffff;stroke-width:5;stroke-linecap:round;stroke-linejoin:round;stroke-miterlimit:4;stroke-dasharray:none;stroke-opacity:1"
       d="m 112.11199,80.277587 10.4921,-11.860631 c 8.49238,-9.600085 21.32051,-10.690107 28.28305,-0.912357 6.96254,9.77775 -3.48993,20.496079 -20.9842,26.002156 -17.49427,5.506077 0,0 0,0"
       id="path5645"
       sodipodi:nodetypes="cszzc" />
    <rect
       style="fill:#41afdb;fill-opacity:1;stroke:none;stroke-width:0.864996;stroke-linecap:round;stroke-linejoin:round;stroke-miterlimit:4;stroke-dasharray:none;stroke-opacity:1;paint-order:stroke markers fill"
       id="rect2809"
       width="199.99998"
       height="200"
       x="7.6293945e-06"
       y="4.6629367e-15"
       ry="53.421642" />
    <path
       style="fill:none;stroke:#ffffff;stroke-width:7;stroke-linecap:round;stroke-linejoin:round;stroke-miterlimit:4;stroke-dasharray:none;stroke-opacity:1"
       d="m 120.65056,55.613029 12.42422,0.16147 -3.95867,-16.219609 12.93421,11.506152 10.72793,-21.468957 -0.42459,20.280952 23.57005,-14.489049 -17.33663,22.476192 22.2771,5.983982 -26.5514,5.145988 11.06834,15.828999 -17.34674,-7.165557 -1.96583,7.982257"
       id="path5740"
       inkscape:transform-center-x="-3.045357"
       inkscape:transform-center-y="3.2894382" />
    <circle
       style="fill:none;stroke:#ffffff;stroke-width:7;stroke-linecap:round;stroke-linejoin:round;stroke-miterlimit:4;stroke-dasharray:none;paint-order:stroke markers fill"
       id="path5639"
       cx="100"
       cy="100"
       r="48.25" />
    <circle
       style="fill:#ffffff;fill-opacity:1;stroke:#ffffff;stroke-width:3;stroke-linecap:round;stroke-linejoin:round;stroke-opacity:1;paint-order:stroke markers fill"
       id="path6352"
       cx="54.623653"
       cy="117.35551"
       r="15.362904" />
    <path
       style="color:#000000;font-style:normal;font-variant:normal;font-weight:normal;font-stretch:normal;font-size:medium;line-height:normal;font-family:sans-serif;font-variant-ligatures:normal;font-variant-position:normal;font-variant-caps:normal;font-variant-numeric:normal;font-variant-alternates:normal;font-variant-east-asian:normal;font-feature-settings:normal;font-variation-settings:normal;text-indent:0;text-align:start;text-decoration:none;text-decoration-line:none;text-decoration-style:solid;text-decoration-color:#000000;letter-spacing:normal;word-spacing:normal;text-transform:none;writing-mode:lr-tb;direction:ltr;text-orientation:mixed;dominant-baseline:auto;baseline-shift:baseline;text-anchor:start;white-space:normal;shape-padding:0;shape-margin:0;inline-size:0;clip-rule:nonzero;display:inline;overflow:visible;visibility:visible;isolation:auto;mix-blend-mode:normal;color-interpolation:sRGB;color-interpolation-filters:linearRGB;solid-color:#000000;solid-opacity:1;vector-effect:none;fill:#ffffff;fill-opacity:1;fill-rule:nonzero;stroke:none;stroke-linecap:round;stroke-linejoin:round;stroke-miterlimit:4;stroke-dasharray:none;stroke-dashoffset:0;stroke-opacity:1;paint-order:stroke markers fill;color-rendering:auto;image-rendering:auto;shape-rendering:auto;text-rendering:auto;enable-background:accumulate;stop-color:#000000;stop-opacity:1;opacity:1;stroke-width:7.4"
       d="M 53.431641 80.105469 A 1.55 1.55 0 0 0 53.195312 80.128906 C 38.579283 82.637234 27.621686 86.143782 20.984375 90.353516 C 17.665719 92.458382 15.361492 94.757962 14.400391 97.429688 C 13.439289 100.10141 14.093161 103.03908 16.138672 105.54492 C 20.229694 110.55661 29.061896 114.36403 41.210938 117.38672 C 53.359979 120.40941 68.838265 122.48341 86.0625 123.22852 C 120.51097 124.71873 154.82119 120.66686 173.13477 112.69922 C 177.71316 110.70731 181.08496 108.57117 183.2793 106.20117 C 185.47363 103.83118 186.46887 101.04695 185.84961 98.345703 C 185.23035 95.644458 183.20004 93.253912 180.09766 91.080078 C 176.99527 88.906244 172.74986 86.911289 167.34375 85.091797 A 1.55 1.55 0 0 0 165.38086 86.066406 A 1.55 1.55 0 0 0 166.35547 88.03125 C 171.57425 89.787695 175.57996 91.700347 178.31836 93.619141 C 181.05676 95.537935 182.45809 97.424939 182.82812 99.039062 C 183.19816 100.65319 182.73916 102.22154 181.00391 104.0957 C 179.26865 105.96987 176.2359 107.96838 171.89844 109.85547 C 154.54859 117.40382 120.30847 121.60649 86.197266 120.13086 C 69.141664 119.39305 53.831039 117.33073 41.958984 114.37695 C 30.08693 111.42318 21.665414 107.4139 18.539062 103.58398 C 16.975887 101.66902 16.713935 100.15525 17.316406 98.480469 C 17.918878 96.805683 19.656919 94.865604 22.644531 92.970703 C 28.619755 89.180901 39.330802 85.653115 53.720703 83.183594 A 1.55 1.55 0 0 0 54.986328 81.394531 A 1.55 1.55 0 0 0 53.431641 80.105469 z "
       id="path6350" />
    <path
       style="fill:none;stroke:#ffffff;stroke-width:7.39999;stroke-linecap:round;stroke-linejoin:round;stroke-miterlimit:4;stroke-dasharray:none;paint-order:stroke markers fill"
       id="path6935"
       sodipodi:type="arc"
       sodipodi:cx="99.999992"
       sodipodi:cy="100"
       sodipodi:rx="80.441864"
       sodipodi:ry="19.417004"
       sodipodi:start="5.3807289"
       sodipodi:end="4.0967546"
       sodipodi:arc-type="arc"
       d="M 149.84852,84.760536 A 80.441864,19.417004 0 0 1 175.63781,106.60962 80.441864,19.417004 0 0 1 97.880372,119.41026 80.441864,19.417004 0 0 1 23.024649,105.63862 80.441864,19.417004 0 0 1 53.546702,84.147817"
       sodipodi:open="true" />
  </g>
</svg>
