<?xml version="1.0" encoding="UTF-8" standalone="no"?>
<svg
   xmlns:dc="http://purl.org/dc/elements/1.1/"
   xmlns:cc="http://creativecommons.org/ns#"
   xmlns:rdf="http://www.w3.org/1999/02/22-rdf-syntax-ns#"
   xmlns:svg="http://www.w3.org/2000/svg"
   xmlns="http://www.w3.org/2000/svg"
   xmlns:sodipodi="http://sodipodi.sourceforge.net/DTD/sodipodi-0.dtd"
   xmlns:inkscape="http://www.inkscape.org/namespaces/inkscape"
   viewBox="0 0 91 91"
   xml:space="preserve"
   version="1.1"
   id="svg3047"
   sodipodi:docname="multiplanet_icon.svg"
   inkscape:version="1.0.2 (e86c8708, 2021-01-15)"><metadata
     id="metadata3053"><rdf:RDF><cc:Work
         rdf:about=""><dc:format>image/svg+xml</dc:format><dc:type
           rdf:resource="http://purl.org/dc/dcmitype/StillImage" /></cc:Work></rdf:RDF></metadata><defs
     id="defs3051" /><sodipodi:namedview
     pagecolor="#ffffff"
     bordercolor="#666666"
     borderopacity="1"
     objecttolerance="10"
     gridtolerance="10"
     guidetolerance="10"
     inkscape:pageopacity="0"
     inkscape:pageshadow="2"
     inkscape:window-width="1648"
     inkscape:window-height="1155"
     id="namedview3049"
     showgrid="false"
     inkscape:zoom="3.515417"
     inkscape:cx="45.5"
     inkscape:cy="45.5"
     inkscape:window-x="753"
     inkscape:window-y="140"
     inkscape:window-maximized="0"
     inkscape:current-layer="svg3047" /><rect
     style="fill:#41afdb;fill-opacity:1;stroke:none;stroke-width:3.26929;stroke-linecap:round;stroke-linejoin:round;stroke-miterlimit:4;stroke-dasharray:none;stroke-opacity:1;paint-order:stroke markers fill"
     id="rect2809"
     width="91"
     height="91.000008"
     x="0.30000001"
     y="0.30000001"
     ry="24.306845" /><g
     id="g3654"
     style="fill:#ffffff;fill-opacity:1;stroke-width:0.8809"
     transform="matrix(1.1352022,0,0,1.1352022,-6.1511331,-6.1610703)"><path
       d="m 25.843433,59.387081 c 7.654549,0 13.88272,-6.228913 13.88272,-13.886428 0,-7.656032 -6.22743,-13.884204 -13.88272,-13.884204 -7.658257,0 -13.889393,6.228172 -13.889393,13.884204 0,7.657515 6.231136,13.886428 13.889393,13.886428 z m 0,-24.044553 c 5.60098,0 10.156641,4.557145 10.156641,10.158866 0,5.602463 -4.556402,10.16109 -10.156641,10.16109 -5.604687,0 -10.163314,-4.557885 -10.163314,-10.16109 0,-5.601721 4.559368,-10.158866 10.163314,-10.158866 z"
       fill="#fcfaf9"
       class="fill-000000"
       id="path3041"
       style="fill:#ffffff;fill-opacity:1;stroke-width:0.880899" /><path
       d="m 58.445512,45.502136 c 0,-3.749803 -2.875739,-6.836829 -6.536578,-7.179337 C 48.780392,28.000092 39.317664,20.911942 28.391489,20.911942 a 24.60428,24.60428 0 0 0 -11.955924,3.103336 1.8630395,1.8630395 0 0 0 1.81411,3.253832 20.870046,20.870046 0 0 1 10.141814,-2.631089 c 9.112806,0 17.028315,5.809303 19.815831,14.325313 -2.468731,1.146144 -4.188688,3.643047 -4.188688,6.539543 0,2.896496 1.719216,5.391917 4.187947,6.538802 -2.791965,8.512303 -10.710439,14.324572 -19.815831,14.324572 a 20.865597,20.865597 0 0 1 -10.144039,-2.63109 1.8630395,1.8630395 0 0 0 -1.814851,3.253833 24.60428,24.60428 0 0 0 11.95889,3.103335 c 10.915795,0 20.386679,-7.090373 23.519669,-17.410115 3.660839,-0.344732 6.535095,-3.431758 6.535095,-7.180078 z m -7.21344,-3.488102 c 1.92309,0 3.487361,1.564271 3.487361,3.488102 0,1.923831 -1.564271,3.487361 -3.487361,3.487361 -1.923831,0 -3.488102,-1.56353 -3.488102,-3.487361 0,-1.923831 1.565012,-3.488102 3.488102,-3.488102 z"
       fill="#fcfaf9"
       class="fill-000000"
       id="path3043"
       style="fill:#ffffff;fill-opacity:1;stroke-width:0.880899" /><path
       d="m 66.985246,41.237829 a 38.355038,38.355038 0 0 0 -4.801794,-14.89023 38.902904,38.902904 0 0 0 -7.94368,-9.83415 1.8630395,1.8630395 0 0 0 -2.480593,2.780103 35.181273,35.181273 0 0 1 7.184527,8.893363 34.686785,34.686785 0 0 1 4.326581,13.331148 4.5437999,4.5437999 0 0 0 -2.36494,3.984073 4.5445412,4.5445412 0 0 0 2.364199,3.983331 C 62.30207,58.056338 58.234965,65.931072 51.759179,71.711461 a 1.8615568,1.8615568 0 0 0 1.241038,3.25235 1.8534018,1.8534018 0 0 0 1.239555,-0.47373 c 7.197872,-6.425373 11.706086,-15.188998 12.746957,-24.726604 1.744421,-0.633122 2.995097,-2.301925 2.995097,-4.262083 7.41e-4,-1.960899 -1.251417,-3.630443 -2.99658,-4.263565 z m -1.539806,3.450293 a 0.81475543,0.81475543 0 0 1 0.81179,0.813272 0.81327271,0.81327271 0 0 1 -1.625804,0 c 0,-0.437402 0.347698,-0.789549 0.779911,-0.807341 0.01186,0 0.02298,-0.0044 0.0341,-0.0059 z M 76.003899,42.46404 c -1.676217,0 -3.04032,1.362621 -3.04032,3.037354 0,1.674734 1.364103,3.037355 3.04032,3.037355 1.676958,0 3.041062,-1.362621 3.041062,-3.037355 0,-1.674733 -1.364104,-3.037354 -3.041062,-3.037354 z"
       fill="#fcfaf9"
       class="fill-000000"
       id="path3045"
       style="fill:#ffffff;fill-opacity:1;stroke-width:0.880899" /></g></svg>
