<?xml version="1.0" encoding="UTF-8" standalone="no"?>
<svg
   xmlns:dc="http://purl.org/dc/elements/1.1/"
   xmlns:cc="http://creativecommons.org/ns#"
   xmlns:rdf="http://www.w3.org/1999/02/22-rdf-syntax-ns#"
   xmlns:svg="http://www.w3.org/2000/svg"
   xmlns="http://www.w3.org/2000/svg"
   xmlns:sodipodi="http://sodipodi.sourceforge.net/DTD/sodipodi-0.dtd"
   xmlns:inkscape="http://www.inkscape.org/namespaces/inkscape"
   fill="#000000"
   width="800px"
   height="800px"
   viewBox="0 0 32 32"
   id="icon"
   version="1.1"
   sodipodi:docname="neural-net.svg"
   inkscape:version="1.0.2 (e86c8708, 2021-01-15)">
  <metadata
     id="metadata856">
    <rdf:RDF>
      <cc:Work
         rdf:about="">
        <dc:format>image/svg+xml</dc:format>
        <dc:type
           rdf:resource="http://purl.org/dc/dcmitype/StillImage" />
        <dc:title></dc:title>
      </cc:Work>
    </rdf:RDF>
  </metadata>
  <sodipodi:namedview
     pagecolor="#ffffff"
     bordercolor="#666666"
     borderopacity="1"
     objecttolerance="10"
     gridtolerance="10"
     guidetolerance="10"
     inkscape:pageopacity="0"
     inkscape:pageshadow="2"
     inkscape:window-width="1783"
     inkscape:window-height="1101"
     id="namedview854"
     showgrid="false"
     inkscape:zoom="0.91875"
     inkscape:cx="400"
     inkscape:cy="400"
     inkscape:window-x="1435"
     inkscape:window-y="200"
     inkscape:window-maximized="0"
     inkscape:current-layer="icon" />
  <defs
     id="defs842">
    <style
       id="style840">
      .cls-1 {
        fill: none;
      }
    </style>
  </defs>
  <rect
     style="fill:#41afdb;fill-opacity:1;stroke:none;stroke-width:0.130771;stroke-linecap:round;stroke-linejoin:round;stroke-miterlimit:4;stroke-dasharray:none;stroke-opacity:1;paint-order:stroke markers fill"
     id="rect2809"
     width="31.800001"
     height="31.800001"
     x="0.14175415"
     y="0.14175415"
     ry="8.4940414" />
  <path
     d="M27,24a2.9609,2.9609,0,0,0-1.2854.3008L21.4141,20H18v2h2.5859l3.7146,3.7148A2.9665,2.9665,0,0,0,24,27a3,3,0,1,0,3-3Zm0,4a1,1,0,1,1,1-1A1.0009,1.0009,0,0,1,27,28Z"
     id="path844"
     style="fill:#ffffff;fill-opacity:1" />
  <path
     d="M27,13a2.9948,2.9948,0,0,0-2.8157,2H18v2h6.1843A2.9947,2.9947,0,1,0,27,13Zm0,4a1,1,0,1,1,1-1A1.0009,1.0009,0,0,1,27,17Z"
     id="path846"
     style="stroke:none;stroke-opacity:1;fill:#ffffff;fill-opacity:1" />
  <path
     d="M27,2a3.0033,3.0033,0,0,0-3,3,2.9657,2.9657,0,0,0,.3481,1.373L20.5957,10H18v2h3.4043l4.3989-4.2524A2.9987,2.9987,0,1,0,27,2Zm0,4a1,1,0,1,1,1-1A1.0009,1.0009,0,0,1,27,6Z"
     id="path848"
     style="fill:#ffffff;fill-opacity:1" />
  <path
     d="M18,6h2V4H18a3.9756,3.9756,0,0,0-3,1.3823A3.9756,3.9756,0,0,0,12,4H11a9.01,9.01,0,0,0-9,9v6a9.01,9.01,0,0,0,9,9h1a3.9756,3.9756,0,0,0,3-1.3823A3.9756,3.9756,0,0,0,18,28h2V26H18a2.0023,2.0023,0,0,1-2-2V8A2.0023,2.0023,0,0,1,18,6ZM12,26H11a7.0047,7.0047,0,0,1-6.92-6H6V18H4V14H7a3.0033,3.0033,0,0,0,3-3V9H8v2a1.0009,1.0009,0,0,1-1,1H4.08A7.0047,7.0047,0,0,1,11,6h1a2.0023,2.0023,0,0,1,2,2v4H12v2h2v4H12a3.0033,3.0033,0,0,0-3,3v2h2V21a1.0009,1.0009,0,0,1,1-1h2v4A2.0023,2.0023,0,0,1,12,26Z"
     id="path850"
     style="fill:#ffffff;fill-opacity:1" />
  <rect
     id="_Transparent_Rectangle_"
     data-name="&lt;Transparent Rectangle&gt;"
     class="cls-1"
     width="32"
     height="32" />
</svg>
